<svg width="35" height="35" viewBox="0 0 35 35" fill="none" xmlns="http://www.w3.org/2000/svg">
<path d="M4.94362 12.8547H11.0316V14.2871C11.0316 14.582 10.7896 14.8244 10.4947 14.8244H9.77825V25.4207H10.4947C10.7896 25.4207 11.0316 25.6575 11.0316 25.9575V27.3905H4.94362V25.9575C4.94362 25.6575 5.18553 25.4207 5.48097 25.4207H6.19693V14.8244H5.48149C5.18656 14.8244 4.94414 14.582 4.94414 14.2871L4.94362 12.8547ZM14.4549 12.8547H20.5433V14.2871C20.5433 14.582 20.3009 14.8244 20.006 14.8244H19.2895V25.4207H20.006C20.3009 25.4207 20.5433 25.6575 20.5433 25.9575V27.3905H14.4549V25.9575C14.4549 25.6575 14.6968 25.4207 14.9922 25.4207H15.7082V14.8244H14.9922C14.6973 14.8244 14.4549 14.582 14.4549 14.2871V12.8547ZM28.8013 25.4207H29.5172C29.8121 25.4207 30.0546 25.6575 30.0546 25.9575V27.3905H23.9661V25.9575C23.9661 25.6575 24.2085 25.4207 24.5035 25.4207H25.2205V14.8244H24.504C24.2091 14.8244 23.9666 14.582 23.9666 14.2871V12.8547H30.0551V14.2871C30.0551 14.582 29.8132 14.8244 29.5177 14.8244H28.8018L28.8013 25.4207ZM31.8715 29.0911V30.471H3.13186V29.0916C3.13186 28.7333 3.42164 28.4436 3.77987 28.4436H31.224C31.5817 28.4436 31.8715 28.7328 31.8715 29.0911ZM33.7424 33.3214V32.1711C33.7424 31.8128 33.4516 31.5225 33.0934 31.5225H1.90634C1.54811 31.5225 1.25781 31.8128 1.25781 32.1711V33.3214C1.25781 33.6797 1.54811 33.9705 1.90634 33.9705H33.0934C33.4516 33.9705 33.7424 33.6797 33.7424 33.3214ZM16.8585 1.19401L2.93112 8.79982C2.72369 8.91305 2.5945 9.13077 2.5945 9.36702V11.1551C2.5945 11.5118 2.88377 11.8011 3.24097 11.8011H31.7624C32.1196 11.8011 32.4088 11.5118 32.4088 11.1551V9.36702C32.4088 9.13026 32.2796 8.91305 32.0722 8.79982L18.1494 1.19401C17.9515 1.08593 17.7295 1.0293 17.504 1.0293C17.2784 1.0293 17.0565 1.08593 16.8585 1.19401ZM17.504 8.93724C16.9431 8.93683 16.4052 8.71383 16.0086 8.31719C15.612 7.92056 15.389 7.38273 15.3885 6.8218C15.3892 6.26105 15.6124 5.72349 16.009 5.32708C16.4056 4.93066 16.9432 4.7078 17.504 4.70739C18.6657 4.70739 19.6091 5.65548 19.6091 6.82232C19.6091 7.98864 18.6657 8.93724 17.504 8.93724Z" fill="white"/>
</svg>
