<svg width="35" height="35" viewBox="0 0 35 35" fill="none" xmlns="http://www.w3.org/2000/svg">
<path d="M26.25 3.28125H13.125C12.5448 3.28125 11.9884 3.51172 11.5782 3.92195C11.168 4.33219 10.9375 4.88859 10.9375 5.46875V7.65625H8.75C8.16984 7.65625 7.61344 7.88672 7.2032 8.29695C6.79297 8.70719 6.5625 9.26359 6.5625 9.84375V30.625C6.5625 30.9151 6.67773 31.1933 6.88285 31.3984C7.08797 31.6035 7.36617 31.7188 7.65625 31.7188C7.88594 31.7188 8.11125 31.6466 8.29937 31.5131L15.3125 26.4972L22.3398 31.5153C22.5019 31.6346 22.6944 31.7056 22.8951 31.7201C23.0958 31.7346 23.2965 31.6921 23.4741 31.5973C23.6508 31.5035 23.7988 31.3636 23.9025 31.1924C24.0061 31.0212 24.0614 30.8251 24.0625 30.625V25.2514L26.7148 27.1381C26.8969 27.2725 27.1175 27.3446 27.3438 27.3438C27.6338 27.3438 27.912 27.2285 28.1171 27.0234C28.3223 26.8183 28.4375 26.5401 28.4375 26.25V5.46875C28.4375 4.88859 28.207 4.33219 27.7968 3.92195C27.3866 3.51172 26.8302 3.28125 26.25 3.28125ZM26.25 24.1314L24.0625 22.5586V9.84375C24.0625 9.26359 23.832 8.70719 23.4218 8.29695C23.0116 7.88672 22.4552 7.65625 21.875 7.65625H13.125V5.46875H26.25V24.1314Z" fill="white"/>
</svg>
