<svg width="35" height="35" viewBox="0 0 35 35" fill="none" xmlns="http://www.w3.org/2000/svg">
<g clip-path="url(#clip0_634_75)">
<path d="M8.69457 3.79053H4.29989C3.62567 3.79053 3.0791 4.33709 3.0791 5.01132C3.0791 5.68554 3.62567 6.23211 4.29989 6.23211H8.69457C9.36879 6.23211 9.91536 5.68554 9.91536 5.01132C9.91536 4.33709 9.36879 3.79053 8.69457 3.79053Z" fill="white"/>
<path d="M8.69457 10.0352H4.29989C3.62567 10.0352 3.0791 10.5817 3.0791 11.2559C3.0791 11.9302 3.62567 12.4767 4.29989 12.4767H8.69457C9.36879 12.4767 9.91536 11.9302 9.91536 11.2559C9.91536 10.5817 9.36879 10.0352 8.69457 10.0352Z" fill="white"/>
<path d="M8.69457 16.2798H4.29989C3.62567 16.2798 3.0791 16.8264 3.0791 17.5006C3.0791 18.1748 3.62567 18.7214 4.29989 18.7214H8.69457C9.36879 18.7214 9.91536 18.1748 9.91536 17.5006C9.91536 16.8264 9.36879 16.2798 8.69457 16.2798Z" fill="white"/>
<path d="M8.69457 22.5239H4.29989C3.62567 22.5239 3.0791 23.0705 3.0791 23.7447C3.0791 24.4189 3.62567 24.9655 4.29989 24.9655H8.69457C9.36879 24.9655 9.91536 24.4189 9.91536 23.7447C9.91536 23.0705 9.36879 22.5239 8.69457 22.5239Z" fill="white"/>
<path d="M8.69457 28.7686H4.29989C3.62567 28.7686 3.0791 29.3151 3.0791 29.9893C3.0791 30.6636 3.62567 31.2101 4.29989 31.2101H8.69457C9.36879 31.2101 9.91536 30.6636 9.91536 29.9893C9.91536 29.3151 9.36879 28.7686 8.69457 28.7686Z" fill="white"/>
<path fill-rule="evenodd" clip-rule="evenodd" d="M25.1893 0H28.9187V6.4697L27.0479 7.88992L25.1885 6.46889L25.1893 0Z" fill="white"/>
<path fill-rule="evenodd" clip-rule="evenodd" d="M12.5284 0H24.4125V6.8516L27.0462 8.86445L29.6969 6.85079V0.0290664C30.315 0.124124 30.8789 0.436828 31.2869 0.910831C31.6949 1.38483 31.9201 1.98896 31.9221 2.61436V32.3848C31.9202 33.0776 31.6441 33.7415 31.1543 34.2313C30.6644 34.7212 30.0005 34.9973 29.3077 34.9992H12.5284V0ZM17.0449 14.0124H27.4055C28.0086 14.0124 28.5028 14.5066 28.5028 15.1105V19.8903C28.5028 20.4934 28.0086 20.9876 27.4047 20.9876H17.0458C16.4418 20.9876 15.9477 20.4934 15.9477 19.8895V15.1097C15.9477 14.5066 16.441 14.0124 17.0449 14.0124ZM6.49707 1.43394C6.49707 0.645113 7.1438 0 7.93101 0H11.75V35.0008H7.93101C7.14299 35.0008 6.49788 34.3549 6.49788 33.5661V31.9876H8.69401C9.22381 31.9867 9.73167 31.7759 10.1064 31.4014C10.4811 31.0269 10.6921 30.5191 10.6931 29.9893C10.6923 29.4595 10.4815 28.9516 10.1069 28.5769C9.73239 28.2022 9.22461 27.9912 8.69481 27.9901H6.49788V25.7432H8.69401C9.22381 25.7423 9.73167 25.5315 10.1064 25.157C10.4811 24.7824 10.6921 24.2746 10.6931 23.7448C10.6923 23.215 10.4815 22.7072 10.1069 22.3325C9.73239 21.9578 9.22461 21.7468 8.69481 21.7457H6.49788V19.4987H8.69401C9.7953 19.4987 10.6931 18.6009 10.6931 17.5004C10.6931 16.3999 9.7953 15.5013 8.69481 15.5013H6.49788V13.2543H8.69401C9.7953 13.2543 10.6931 12.3565 10.6931 11.256C10.6931 10.1555 9.7953 9.25685 8.69481 9.25685H6.49788V7.00985H8.69401C9.7953 7.00985 10.6931 6.11202 10.6931 5.01153C10.6931 3.91105 9.7953 3.0116 8.69481 3.0116H6.49788V1.43394H6.49707Z" fill="white"/>
<path d="M18.911 17.9478H25.5389V19.3082H18.9102L18.911 17.9478ZM18.911 15.6919H25.5389V17.0532H18.9102L18.911 15.6919Z" fill="white"/>
</g>
<defs>
<clipPath id="clip0_634_75">
<rect width="35" height="35" fill="white"/>
</clipPath>
</defs>
</svg>
