<svg width="35" height="35" viewBox="0 0 35 35" fill="none" xmlns="http://www.w3.org/2000/svg">
<path d="M17.5 24.1016C19.0102 24.1016 20.2344 22.8773 20.2344 21.3672C20.2344 19.857 19.0102 18.6328 17.5 18.6328C15.9898 18.6328 14.7656 19.857 14.7656 21.3672C14.7656 22.8773 15.9898 24.1016 17.5 24.1016Z" fill="white"/>
<path d="M17.5 15.3511C14.1832 15.3511 11.4844 18.0499 11.4844 21.3667C11.4844 24.6835 14.1832 27.3823 17.5 27.3823C20.8168 27.3823 23.5156 24.684 23.5156 21.3667C23.5156 18.0494 20.8168 15.3511 17.5 15.3511ZM17.5 25.1948C15.3891 25.1948 13.6719 23.4776 13.6719 21.3667C13.6719 19.2558 15.3891 17.5386 17.5 17.5386C19.6109 17.5386 21.3281 19.2563 21.3281 21.3667C21.3281 23.4771 19.6109 25.1948 17.5 25.1948Z" fill="white"/>
<path d="M13.6719 27.3482V33.8024L17.5 31.2507L21.3281 33.8024V27.3482C20.1871 28.0845 18.858 28.4762 17.5 28.4762C16.142 28.4762 14.8129 28.0845 13.6719 27.3482ZM32.2656 1.19775H2.73438C1.82984 1.19775 1.09375 1.93385 1.09375 2.83838V22.4603C1.09375 23.3653 1.82984 24.1009 2.73438 24.1009H10.9391C10.6498 23.4042 10.474 22.6657 10.4185 21.9134H6.00578V21.3665C6.00491 20.7893 5.77519 20.2359 5.36697 19.8278C4.95875 19.4197 4.40536 19.1901 3.82812 19.1894H3.28125V6.10979H3.82812C4.40545 6.10906 4.95893 5.8794 5.36716 5.47117C5.77539 5.06293 6.00506 4.50946 6.00578 3.93213V3.38525H28.9942V3.93213C28.9949 4.50946 29.2246 5.06293 29.6328 5.47117C30.0411 5.8794 30.5945 6.10906 31.1719 6.10979H31.7188V19.1888H31.1719C30.5945 19.1896 30.0409 19.4193 29.6326 19.8277C29.2244 20.236 28.9948 20.7896 28.9942 21.3671V21.9139H24.5815C24.526 22.6662 24.3502 23.4048 24.0609 24.1014H32.2656C33.1702 24.1014 33.9062 23.3653 33.9062 22.4608V2.83838C33.9062 1.93385 33.1702 1.19775 32.2656 1.19775Z" fill="white"/>
<path d="M24.582 20.8196H27.9453C28.0601 20.1509 28.3794 19.5342 28.8594 19.0545C29.3393 18.5749 29.9562 18.2559 30.625 18.1416V7.1576C29.9562 7.04312 29.3394 6.72402 28.8595 6.24428C28.3797 5.76454 28.0605 5.14778 27.9459 4.479H7.05469C6.94004 5.14785 6.62073 5.76467 6.14079 6.24442C5.66084 6.72416 5.0439 7.04322 4.375 7.1576V18.141C5.04387 18.2555 5.66075 18.5747 6.1406 19.0546C6.62044 19.5344 6.93963 20.1513 7.05414 20.8202H10.4185C10.6996 17.1556 13.7643 14.2577 17.5 14.2577C21.2357 14.2577 24.3004 17.155 24.582 20.8196ZM27.2891 10.5001H22.0128V9.40635H27.2891V10.5001ZM7.71094 6.70971H27.2891V7.80346H7.71094V6.70971ZM7.71094 9.4058H20.9169V10.4996H7.71094V9.4058ZM7.71094 13.1962V12.1024H27.2891V13.1962H7.71094Z" fill="white"/>
</svg>
