<svg width="45" height="45" viewBox="0 0 45 45" fill="none" xmlns="http://www.w3.org/2000/svg">
<path fill-rule="evenodd" clip-rule="evenodd" d="M36.6507 6.10304C37.6629 6.10304 38.4885 6.92859 38.4885 7.94083V41.756C38.4885 42.7681 37.6629 43.5938 36.6507 43.5938H8.34902C7.33679 43.5938 6.51123 42.7682 6.51123 41.756V7.94083C6.51123 6.92868 7.33679 6.10304 8.34902 6.10304H12.2469V8.1109C12.2469 9.66902 13.5136 10.9356 15.0717 10.9356H29.9282C31.4862 10.9356 32.753 9.66894 32.753 8.1109V6.10304H36.6507ZM22.9728 27.6834H31.6543C32.2049 27.6834 32.6513 27.237 32.6513 26.6863C32.6513 26.1357 32.2049 25.6893 31.6543 25.6893H22.9728C22.4222 25.6893 21.9758 26.1357 21.9758 26.6863C21.9758 27.237 22.4222 27.6834 22.9728 27.6834ZM22.9728 36.4221H31.6543C32.2049 36.4221 32.6513 35.9757 32.6513 35.425C32.6513 34.8744 32.2049 34.428 31.6543 34.428H22.9728C22.4222 34.428 21.9758 34.8744 21.9758 35.425C21.9758 35.9757 22.4222 36.4221 22.9728 36.4221ZM22.9728 18.9446H31.6543C32.2049 18.9446 32.6513 18.4982 32.6513 17.9475C32.6513 17.3969 32.2049 16.9505 31.6543 16.9505H22.9728C22.4222 16.9505 21.9758 17.3969 21.9758 17.9475C21.9758 18.4983 22.4222 18.9446 22.9728 18.9446ZM12.1869 18.8069L13.6997 20.3196C14.089 20.7089 14.7202 20.7089 15.1095 20.3196L15.1149 20.314L18.7486 17.0164C19.1551 16.6465 19.1847 16.017 18.8148 15.6105C18.4448 15.204 17.8154 15.1744 17.4089 15.5443L14.4391 18.2395L13.5967 17.3972C13.2074 17.0079 12.5762 17.0079 12.1869 17.3972C11.7977 17.7864 11.7977 18.4177 12.1869 18.8069ZM12.1869 36.2844L13.6997 37.7971C14.089 38.1864 14.7202 38.1864 15.1095 37.7971L15.1149 37.7915L18.7486 34.4939C19.1551 34.124 19.1847 33.4945 18.8148 33.088C18.4448 32.6815 17.8154 32.6519 17.4089 33.0218L14.4391 35.717L13.5967 34.8746C13.2074 34.4854 12.5762 34.4854 12.1869 34.8746C11.7977 35.2639 11.7977 35.8951 12.1869 36.2844ZM12.1869 27.5457L13.6997 29.0584C14.089 29.4477 14.7202 29.4477 15.1095 29.0584L15.1149 29.0528L18.7486 25.7552C19.1551 25.3853 19.1847 24.7558 18.8148 24.3493C18.4448 23.9428 17.8154 23.9132 17.4089 24.283L14.4391 26.9782L13.5967 26.1359C13.2074 25.7466 12.5762 25.7466 12.1869 26.1359C11.7977 26.5251 11.7977 27.1564 12.1869 27.5457ZM15.0716 4.19502C14.614 4.19502 14.2408 4.5682 14.2408 5.02585V8.1109C14.2408 8.56846 14.614 8.94164 15.0716 8.94164H29.9281C30.3857 8.94164 30.7589 8.56837 30.7589 8.1109V5.02576C30.7589 4.5682 30.3858 4.19493 29.9281 4.19493H26.0449C25.659 2.59497 24.2184 1.40625 22.4999 1.40625C20.7813 1.40625 19.3407 2.59497 18.9548 4.19502H15.0716Z" fill="#0198FF"/>
</svg>
