<svg width="45" height="34" viewBox="0 0 45 34" fill="none" xmlns="http://www.w3.org/2000/svg">
<path d="M7.5 11.25C10.6066 11.25 13.125 8.7316 13.125 5.625C13.125 2.5184 10.6066 0 7.5 0C4.3934 0 1.875 2.5184 1.875 5.625C1.875 8.7316 4.3934 11.25 7.5 11.25Z" fill="#0198FF"/>
<path d="M13.6688 15.1312C11.7816 16.3089 10.2251 17.9474 9.14592 19.8926C8.06673 21.8377 7.50032 24.0255 7.5 26.25H3.75C2.75635 26.247 1.80425 25.851 1.10163 25.1484C0.399009 24.4458 0.00296761 23.4936 0 22.5L0 18.75C0.00445142 17.2595 0.598513 15.8314 1.65244 14.7774C2.70637 13.7235 4.13453 13.1295 5.625 13.125H9.375C10.1936 13.1268 11.0019 13.3073 11.7435 13.6538C12.4851 14.0004 13.1421 14.5046 13.6688 15.1312Z" fill="#0198FF"/>
<path d="M37.5 11.25C40.6066 11.25 43.125 8.7316 43.125 5.625C43.125 2.5184 40.6066 0 37.5 0C34.3934 0 31.875 2.5184 31.875 5.625C31.875 8.7316 34.3934 11.25 37.5 11.25Z" fill="#0198FF"/>
<path d="M44.9998 18.75V22.5C44.9968 23.4936 44.6008 24.4458 43.8982 25.1484C43.1956 25.851 42.2435 26.247 41.2498 26.25H37.4998C37.4995 24.0255 36.9331 21.8377 35.8539 19.8926C34.7747 17.9474 33.2182 16.3089 31.3311 15.1312C31.8577 14.5046 32.5147 14.0004 33.2563 13.6538C33.9979 13.3073 34.8062 13.1268 35.6248 13.125H39.3748C40.8653 13.1295 42.2934 13.7235 43.3474 14.7774C44.4013 15.8314 44.9954 17.2595 44.9998 18.75Z" fill="#0198FF"/>
<path d="M22.5 15C26.6421 15 30 11.6421 30 7.5C30 3.35786 26.6421 0 22.5 0C18.3579 0 15 3.35786 15 7.5C15 11.6421 18.3579 15 22.5 15Z" fill="#0198FF"/>
<path d="M33.75 26.25V28.125C33.7455 29.6155 33.1515 31.0436 32.0976 32.0976C31.0436 33.1515 29.6155 33.7455 28.125 33.75H16.875C15.3845 33.7455 13.9564 33.1515 12.9024 32.0976C11.8485 31.0436 11.2545 29.6155 11.25 28.125V26.25C11.25 23.7636 12.2377 21.379 13.9959 19.6209C15.754 17.8627 18.1386 16.875 20.625 16.875H24.375C26.8614 16.875 29.246 17.8627 31.0041 19.6209C32.7623 21.379 33.75 23.7636 33.75 26.25Z" fill="#0198FF"/>
</svg>
