<svg width="24" height="24" viewBox="0 0 24 24" fill="none" xmlns="http://www.w3.org/2000/svg">
<g clip-path="url(#clip0_637_67)">
<path d="M23.9764 7.05607C23.9201 5.78082 23.7139 4.90418 23.4185 4.14447C23.1137 3.33811 22.6449 2.61618 22.0307 2.01602C21.4305 1.40652 20.7038 0.932901 19.9068 0.632936C19.1427 0.337566 18.2706 0.131276 16.9954 0.0751084C15.7106 0.0140652 15.3028 0 12.0443 0C8.78589 0 8.37804 0.0140652 7.09806 0.0703262C5.82286 0.126587 4.94617 0.332971 4.18669 0.628154C3.3801 0.932901 2.65818 1.40174 2.05801 2.01602C1.44852 2.61614 0.975128 3.34284 0.674928 4.13987C0.379558 4.90418 0.173315 5.77613 0.117101 7.05128C0.0561043 8.33605 0.0419922 8.7439 0.0419922 12.0023C0.0419922 15.2608 0.0561043 15.6687 0.112318 16.9486C0.168579 18.2239 0.374963 19.1005 0.670381 19.8602C0.975128 20.6666 1.44852 21.3885 2.05801 21.9887C2.65818 22.5982 3.38488 23.0718 4.18191 23.3718C4.94612 23.6671 5.81807 23.8734 7.09351 23.9296C8.37326 23.986 8.78134 23.9999 12.0398 23.9999C15.2982 23.9999 15.7061 23.986 16.9861 23.9296C18.2613 23.8734 19.138 23.6672 19.8974 23.3718C20.6951 23.0633 21.4195 22.5917 22.0243 21.987C22.629 21.3823 23.1007 20.6579 23.4092 19.8602C23.7044 19.096 23.9108 18.2238 23.967 16.9486C24.0233 15.6687 24.0374 15.2608 24.0374 12.0023C24.0374 8.7439 24.0326 8.336 23.9764 7.05607ZM21.8151 16.8549C21.7635 18.027 21.5666 18.6599 21.4025 19.0819C20.9992 20.1274 20.1694 20.9572 19.1238 21.3605C18.7019 21.5246 18.0644 21.7215 16.8968 21.7729C15.631 21.8294 15.2514 21.8432 12.0491 21.8432C8.84688 21.8432 8.46248 21.8294 7.20116 21.7729C6.02905 21.7215 5.39612 21.5246 4.97416 21.3605C4.45389 21.1682 3.98031 20.8634 3.59586 20.4649C3.19734 20.0758 2.8926 19.607 2.70028 19.0866C2.53618 18.6647 2.33932 18.027 2.28788 16.8596C2.23144 15.5938 2.21756 15.2139 2.21756 12.0117C2.21756 8.80944 2.23144 8.42504 2.28788 7.16395C2.33932 5.99184 2.53618 5.35891 2.70028 4.93695C2.8926 4.41644 3.19734 3.94296 3.60064 3.55841C3.98959 3.1599 4.45843 2.85515 4.97894 2.66307C5.4009 2.49897 6.03862 2.30206 7.20594 2.25044C8.47181 2.19418 8.85167 2.18011 12.0537 2.18011C15.2607 2.18011 15.6403 2.19418 16.9016 2.25044C18.0737 2.30211 18.7067 2.49893 19.1286 2.66302C19.6489 2.85515 20.1225 3.1599 20.5069 3.55841C20.9054 3.9476 21.2102 4.41644 21.4025 4.93695C21.5666 5.35891 21.7635 5.99639 21.8151 7.16395C21.8714 8.42982 21.8854 8.80944 21.8854 12.0117C21.8854 15.2139 21.8714 15.589 21.8151 16.8549Z" fill="white"/>
<path d="M12.0442 5.83539C8.64048 5.83539 5.87891 8.59678 5.87891 12.0007C5.87891 15.4045 8.64048 18.1659 12.0442 18.1659C15.448 18.1659 18.2094 15.4045 18.2094 12.0007C18.2094 8.59678 15.448 5.83539 12.0442 5.83539ZM12.0442 15.9999C9.83602 15.9999 8.04486 14.209 8.04486 12.0007C8.04486 9.79232 9.83602 8.00144 12.0441 8.00144C14.2525 8.00144 16.0434 9.79232 16.0434 12.0007C16.0434 14.209 14.2524 15.9999 12.0442 15.9999ZM19.8927 5.59159C19.8927 6.38647 19.2482 7.03094 18.4531 7.03094C17.6583 7.03094 17.0138 6.38647 17.0138 5.59159C17.0138 4.79663 17.6583 4.15234 18.4532 4.15234C19.2482 4.15234 19.8927 4.79658 19.8927 5.59159Z" fill="white"/>
</g>
<defs>
<clipPath id="clip0_637_67">
<rect width="24" height="24" fill="white"/>
</clipPath>
</defs>
</svg>
