<svg width="24" height="24" viewBox="0 0 24 24" fill="none" xmlns="http://www.w3.org/2000/svg">
<path d="M21.5999 21.5984V14.5664C21.5999 11.1104 20.8559 8.47044 16.8239 8.47044C14.8799 8.47044 13.5839 9.52644 13.0559 10.5344H13.0079V8.78244H9.1919V21.5984H13.1759V15.2384C13.1759 13.5584 13.4879 11.9504 15.5519 11.9504C17.5919 11.9504 17.6159 13.8464 17.6159 15.3344V21.5744H21.5999V21.5984ZM2.7119 8.78244H6.6959V21.5984H2.7119V8.78244ZM4.7039 2.39844C3.4319 2.39844 2.3999 3.43044 2.3999 4.70244C2.3999 5.97444 3.4319 7.03044 4.7039 7.03044C5.9759 7.03044 7.0079 5.97444 7.0079 4.70244C7.0079 3.43044 5.9759 2.39844 4.7039 2.39844Z" fill="white"/>
</svg>
