<svg width="35" height="35" viewBox="0 0 35 35" fill="none" xmlns="http://www.w3.org/2000/svg">
<g clip-path="url(#clip0_632_67)">
<path d="M33.8546 1.58008H1.14522C0.512714 1.58008 0 2.09305 0 2.72547V23.6835C0 24.3162 0.512714 24.8289 1.14522 24.8289H18.6627V32.2739C18.6627 32.5776 18.7833 32.8689 18.998 33.0837C19.2128 33.2986 19.504 33.4193 19.8078 33.4194C20.1056 33.4194 20.3988 33.3029 20.6178 33.0838L28.9302 24.8289H33.8547C34.4874 24.8289 35.0001 24.3162 35.0001 23.6835V2.72539C35 2.09297 34.4874 1.58008 33.8546 1.58008ZM15.2094 17.4122C14.2798 18.5959 12.8892 19.2216 11.1878 19.2216C10.5121 19.2216 9.96439 18.674 9.96439 17.9983C9.96439 17.3226 10.5121 16.7748 11.1878 16.7748C12.1505 16.7748 12.8167 16.4972 13.2848 15.9012C13.7384 15.3233 13.9693 14.4928 14.0655 13.6068H11.0135C10.5068 13.6068 10.0959 13.1959 10.0959 12.6892V8.74381C10.0959 8.23698 10.5068 7.82617 11.0135 7.82617H14.9589C15.5233 7.82617 16.037 8.32056 16.1476 8.77372C16.1614 8.83059 16.4887 10.1856 16.5596 11.8739C16.6608 14.2787 16.2064 16.1421 15.2094 17.4122ZM23.6715 17.4122C22.7422 18.5959 21.3515 19.2216 19.65 19.2216C18.9743 19.2216 18.4267 18.674 18.4267 17.9983C18.4267 17.3226 18.9743 16.7748 19.65 16.7748C20.6128 16.7748 21.2792 16.4972 21.747 15.9012C22.2007 15.3233 22.4315 14.4928 22.5277 13.6068H19.4758C18.969 13.6068 18.5584 13.1959 18.5584 12.6892V8.74381C18.5584 8.23698 18.969 7.82617 19.4758 7.82617H23.4213C23.9855 7.82617 24.4992 8.32056 24.6098 8.77372C24.6238 8.83059 24.9507 10.1856 25.022 11.8739C25.123 14.2787 24.6689 16.1421 23.6715 17.4122Z" fill="white"/>
</g>
<defs>
<clipPath id="clip0_632_67">
<rect width="35" height="35" fill="white"/>
</clipPath>
</defs>
</svg>
