<svg width="45" height="45" viewBox="0 0 45 45" fill="none" xmlns="http://www.w3.org/2000/svg">
<path d="M12.6001 23.3984H14.4001V28.7984H12.6001V23.3984Z" fill="#0198FF"/>
<path d="M34.2 29.6984C34.2 30.1952 33.7968 30.5984 33.3 30.5984H29.7C29.2032 30.5984 28.8 30.1952 28.8 29.6984V26.9984H16.2V29.6984C16.2 30.1952 15.7968 30.5984 15.3 30.5984H11.7C11.2032 30.5984 10.8 30.1952 10.8 29.6984V26.9984H0V36.8984C0 38.387 1.2114 39.5984 2.7 39.5984H42.3C43.7886 39.5984 45 38.387 45 36.8984V26.9984H34.2V29.6984ZM44.2098 17.7356L39.8628 13.3887C39.3606 12.8865 38.664 12.5984 37.9548 12.5984H30.6V9.89844C30.6 7.41808 28.5822 5.39844 26.1 5.39844H18.9C16.4178 5.39844 14.4 7.41808 14.4 9.89844V12.5984H7.04522C6.33603 12.5984 5.63941 12.8865 5.13721 13.3887L0.790225 17.7356C0.280811 18.2451 0 18.9237 0 19.6437V25.1984H10.8V22.4984C10.8 22.0017 11.2032 21.5984 11.7 21.5984H15.3C15.7968 21.5984 16.2 22.0017 16.2 22.4984V25.1984H28.8V22.4984C28.8 22.0017 29.2032 21.5984 29.7 21.5984H33.3C33.7968 21.5984 34.2 22.0017 34.2 22.4984V25.1984H45V19.6437C45 18.9237 44.7192 18.2451 44.2098 17.7356ZM28.8 12.5984H16.2V9.89844C16.2 8.40983 17.4114 7.19844 18.9 7.19844H26.1C27.5886 7.19844 28.8 8.40983 28.8 9.89844V12.5984Z" fill="#0198FF"/>
<path d="M30.6001 23.3984H32.4001V28.7984H30.6001V23.3984Z" fill="#0198FF"/>
</svg>
